#!OML:ASF H:\Terrain\Patient Classification 1\Terrain2\Thursday\justin.ASF
:FULLY-SPECIFIED
:DEGREES
3144
root 20.8755 20.8878 -1.0747 305.534 -97.4467 51.0454
lowerback 11.9638 0.911119 8.14668
upperback 2.7435 2.15885 4.51948
thorax -3.68366 0.903201 -0.153559
lowerneck -16.541 -0.675316 -9.05275
upperneck 34.2132 -0.0607234 2.81083
head 14.5864 -1.17232 2.6413
rclavicle -1.88845e-015 -3.02153e-014
rhumerus -28.1512 0.52959 -80.9241
rradius 41.0756
rwrist -15.4592
rhand -21.6182 11.7955
rfingers 7.12502
rthumb 4.77741 -18.1306
lclavicle -1.88845e-015 -3.02153e-014
lhumerus -35.0535 0.136877 87.0917
lradius 34.4069
lwrist 5.50171
lhand -18.2457 20.6854
lfingers 7.12502
lthumb 8.03318 50.5128
rfemur 4.57561 -4.54273 31.3026
rtibia 17.572
rfoot -14.8716 2.99358
rtoes 15.7346
lfemur -41.5789 12.6416 -6.68699
ltibia 93.9846
lfoot 9.93047 -15.2348
ltoes 4.25073
3145
root 20.7894 20.8605 -1.07459 305.684 -97.6922 50.7245
lowerback 11.9421 0.975347 8.37414
upperback 2.77554 2.26258 4.47031
thorax -3.61949 0.954517 -0.344818
lowerneck -16.5113 -0.675894 -8.85608
upperneck 34.3641 -0.147501 2.82042
head 14.6537 -1.19169 2.59852
rclavicle 1.36167e-014 7.95139e-015
rhumerus -28.0367 0.0582693 -80.9554
rradius 40.9131
rwrist -15.06
rhand -21.4358 11.7841
rfingers 7.12502
rthumb 4.95356 -18.138
lclavicle 1.36167e-014 7.95139e-015
lhumerus -34.9925 -0.038075 87.0008
lradius 34.1017
lwrist 5.59675
lhand -18.3493 21.4604
lfingers 7.12502
lthumb 7.93317 51.2916
rfemur 5.03781 -4.49395 31.4189
rtibia 17.711
rfoot -15.2461 3.12163
rtoes 15.8683
lfemur -42.2852 12.6358 -6.773
ltibia 93.355
lfoot 9.92639 -15.2665
ltoes 4.25028
3146
root 20.6998 20.839 -1.08267 306.797 -97.8513 49.5221
lowerback 11.735 1.03582 8.17782
upperback 2.8471 2.28831 4.5505
thorax -3.4399 0.975051 -0.15095
lowerneck -16.5354 -0.635185 -8.77801
upperneck 34.5277 -0.0983931 2.74658
head 14.7312 -1.18118 2.5648
rclavicle 2.5842e-015 9.54166e-015
rhumerus -27.833 -0.0913 -80.8697
rradius 40.6671
rwrist -14.6237
rhand -21.5753 11.7854
rfingers 7.12502
rthumb 4.8189 -18.1398
lclavicle 2.5842e-015 9.54166e-015
lhumerus -34.9575 0.184953 86.9857
lradius 33.8542
lwrist 5.63316
lhand -18.1341 21.6907
lfingers 7.12502
lthumb 8.14087 51.5139
rfemur 5.43068 -4.36001 31.438
rtibia 17.8358
rfoot -15.6713 3.12333
rtoes 14.8289
lfemur -42.8715 12.8749 -7.02096
ltibia 92.5109
lfoot 9.59069 -15.4073
ltoes 6.73113
3147
root 20.6105 20.818 -1.08796 306.16 -98.1131 49.9697
lowerback 11.6908 1.08856 8.35035
upperback 2.90215 2.36435 4.64673
thorax -3.34872 1.01213 -0.153917
lowerneck -16.4023 -0.682557 -8.77043
upperneck 34.6128 -0.208395 2.76625
head 14.7485 -1.23168 2.55307
rclavicle -2.42517e-014 -5.725e-014
rhumerus -27.7511 -0.348606 -80.7925
rradius 40.4377
rwrist -14.464
rhand -21.6939 11.8895
rfingers 7.12502
rthumb 4.70436 -18.0382
lclavicle -2.42517e-014 -5.725e-014
lhumerus -34.9239 0.289642 87.006
lradius 33.5523
lwrist 5.51558
lhand -18.1782 21.5835
lfingers 7.12502
lthumb 8.09834 51.4083
rfemur 5.97263 -4.26784 31.6887
rtibia 17.8504
rfoot -15.9946 3.10962
rtoes 13.9775
lfemur -43.2405 12.932 -6.95975
ltibia 91.5271
lfoot 9.20376 -15.172
ltoes 10.7373
3148
root 20.5207 20.8051 -1.09242 305.927 -98.1765 49.9383
lowerback 11.7704 1.12201 8.47357
upperback 2.95213 2.42501 4.55994
thorax -3.32632 1.04304 -0.322476
lowerneck -16.3472 -0.727931 -8.60424
upperneck 34.7577 -0.368745 2.80918
head 14.8135 -1.28121 2.5165
rclavicle -3.21037e-014 -3.26007e-014
rhumerus -27.775 -0.504339 -80.961
rradius 40.3719
rwrist -14.8181
rhand -21.9278 11.8937
rfingers 7.12502
rthumb 4.47852 -18.0389
lclavicle -3.21037e-014 -3.26007e-014
lhumerus -34.8442 0.44591 86.7757
lradius 33.1443
lwrist 5.06099
lhand -18.0355 21.6527
lfingers 7.12502
lthumb 8.23606 51.4722
rfemur 6.78307 -4.17271 31.7277
rtibia 17.5029
rfoot -16.0975 3.03589
rtoes 15.2173
lfemur -43.5429 12.7982 -7.13033
ltibia 90.4392
lfoot 9.23774 -14.1592
ltoes 11.0719
3149
root 20.4276 20.7912 -1.11331 305.308 -98.516 50.2939
lowerback 11.7821 1.14402 8.49221
upperback 3.02653 2.44685 4.69184
thorax -3.25729 1.0534 -0.196617
lowerneck -16.3196 -0.68944 -8.65764
upperneck 34.9681 -0.360721 2.92457
head 14.9042 -1.28267 2.57823
rclavicle 7.25564e-015 5.725e-014
rhumerus -27.7905 -0.497317 -81.0229
rradius 40.3135
rwrist -15.0209
rhand -21.7159 11.8331
rfingers 7.12502
rthumb 4.6831 -18.0952
lclavicle 7.25564e-015 5.725e-014
lhumerus -34.9548 0.892417 86.5878
lradius 32.8553
lwrist 4.55893
lhand -17.927 21.9249
lfingers 7.12502
lthumb 8.34076 51.7403
rfemur 7.64224 -3.75053 32.2111
rtibia 17.108
rfoot -16.1553 2.46546
rtoes 16.1297
lfemur -43.8493 12.9411 -6.93993
ltibia 89.2532
lfoot 9.53586 -13.6131
ltoes 10.2335
